<?xml version="1.0" encoding="UTF-8"?>
<svg width="26px" height="33px" viewBox="0 0 26 33" version="1.1" xmlns="http://www.w3.org/2000/svg" xmlns:xlink="http://www.w3.org/1999/xlink">
    <!-- Generator: Sketch 60.1 (88133) - https://sketch.com -->
    <title>Group 6 Copy 2</title>
    <desc>Created with Sketch.</desc>
    <g id="Illustrations" stroke="none" stroke-width="1" fill="none" fill-rule="evenodd">
        <g id="Desktop-HD" transform="translate(-1009.000000, -231.000000)" stroke="#000000">
            <g id="Group-6-Copy-2" transform="translate(1010.000000, 232.000000)">
                <path d="M2,30.75 C0.8954305,30.75 1.20927536e-13,29.8545695 1.20792265e-13,28.75 L1.20792265e-13,2 C1.20656994e-13,0.8954305 0.8954305,7.30833348e-15 2,7.10542736e-15 L24.5,7.10542736e-15 L24.5,30.75 L2,30.75 Z" id="Combined-Shape" fill="#F6D135"></path>
                <path d="M1.13686838e-13,28.5 C1.13832676e-13,29.690864 0.925161591,30.6656449 2.09595119,30.7448092 L2.25,30.75 L2,30.75 C0.8954305,30.75 7.24069811e-15,29.8545695 7.10542736e-15,28.75 L1.13686838e-13,28.5 L1.13686838e-13,28.5 Z M2.25,26.25 C1.00735931,26.25 1.13534658e-13,27.2573593 1.13686838e-13,28.5 L7.10542736e-15,2 C6.97015661e-15,0.8954305 0.8954305,-6.90252123e-15 2,-7.10542736e-15 L24.5,-1.42108547e-14 L24.5,26.25 L2.25,26.25 Z" id="Combined-Shape" fill="#F6D135"></path>
                <rect id="Rectangle" fill="#AF77F4" x="4.5" y="4.75" width="15.75" height="7.5"></rect>
            </g>
        </g>
    </g>
</svg>