<?xml version="1.0" encoding="UTF-8"?>
<svg width="100px" height="125px" viewBox="0 0 100 125" version="1.1" xmlns="http://www.w3.org/2000/svg" xmlns:xlink="http://www.w3.org/1999/xlink">
    <!-- Generator: Sketch 61 (89581) - https://sketch.com -->
    <title>Group</title>
    <desc>Created with Sketch.</desc>
    <g id="Illustrations" stroke="none" stroke-width="1" fill="none" fill-rule="evenodd">
        <g id="Desktop-HD" transform="translate(-115.000000, -537.000000)" stroke="#000000" stroke-width="2">
            <g id="Group" transform="translate(116.000000, 538.000000)">
                <path d="M8,123 C3.581722,123 1.14227921e-13,119.418278 1.13686838e-13,115 L1.13686838e-13,8 C1.12257576e-13,3.581722 3.581722,8.11624501e-16 8,0 L98,0 L98,123 L8,123 Z" id="Combined-Shape-Copy" fill="#EF4D39"></path>
                <path d="M8,107 C3.66508574,107 0.135457134,110.447838 0.00380682464,114.750821 L9.9475983e-14,115 L-1.42108547e-14,8 C-1.56401161e-14,3.581722 3.581722,8.11624501e-16 8,0 L98,0 L98,107 L8,107 Z" id="Combined-Shape-Copy-2" fill="#F6D135"></path>
                <rect id="Rectangle-Copy" fill="#AF77F4" x="18" y="19" width="63" height="30"></rect>
            </g>
        </g>
    </g>
</svg>